<mxfile host="app.diagrams.net" agent="Mozilla/5.0 (Windows NT 10.0; Win64; x64) AppleWebKit/537.36 (KHTML, like Gecko) Chrome/131.0.0.0 Safari/537.36" version="26.0.4">
  <diagram name="Page-1" id="tP3jSS_p5YS4ZyrNqDYa">
    <mxGraphModel dx="2109" dy="655" grid="1" gridSize="10" guides="1" tooltips="1" connect="1" arrows="1" fold="1" page="1" pageScale="1" pageWidth="850" pageHeight="1100" math="0" shadow="0">
      <root>
        <mxCell id="0" />
        <mxCell id="1" parent="0" />
        <mxCell id="i5Aq-IWf_TVi5hd2lmXF-1" value="&lt;b&gt;AWS&lt;/b&gt;" style="rounded=1;whiteSpace=wrap;html=1;fillColor=#dae8fc;strokeColor=#6c8ebf;" vertex="1" parent="1">
          <mxGeometry x="520" y="200" width="150" height="110" as="geometry" />
        </mxCell>
        <mxCell id="i5Aq-IWf_TVi5hd2lmXF-3" style="edgeStyle=orthogonalEdgeStyle;rounded=0;orthogonalLoop=1;jettySize=auto;html=1;entryX=0;entryY=0.5;entryDx=0;entryDy=0;" edge="1" parent="1" source="i5Aq-IWf_TVi5hd2lmXF-2" target="i5Aq-IWf_TVi5hd2lmXF-1">
          <mxGeometry relative="1" as="geometry" />
        </mxCell>
        <mxCell id="i5Aq-IWf_TVi5hd2lmXF-2" value="&lt;b&gt;Console&lt;/b&gt;" style="ellipse;whiteSpace=wrap;html=1;fillColor=#d5e8d4;strokeColor=#82b366;" vertex="1" parent="1">
          <mxGeometry x="170" y="110" width="120" height="80" as="geometry" />
        </mxCell>
        <mxCell id="i5Aq-IWf_TVi5hd2lmXF-7" style="edgeStyle=orthogonalEdgeStyle;rounded=0;orthogonalLoop=1;jettySize=auto;html=1;" edge="1" parent="1" source="i5Aq-IWf_TVi5hd2lmXF-4">
          <mxGeometry relative="1" as="geometry">
            <mxPoint x="490" y="255" as="targetPoint" />
          </mxGeometry>
        </mxCell>
        <mxCell id="i5Aq-IWf_TVi5hd2lmXF-4" value="&lt;b&gt;CLI&lt;/b&gt;" style="ellipse;whiteSpace=wrap;html=1;fillColor=#f8cecc;strokeColor=#b85450;" vertex="1" parent="1">
          <mxGeometry x="170" y="215" width="120" height="80" as="geometry" />
        </mxCell>
        <mxCell id="i5Aq-IWf_TVi5hd2lmXF-6" style="edgeStyle=orthogonalEdgeStyle;rounded=0;orthogonalLoop=1;jettySize=auto;html=1;entryX=0;entryY=0.5;entryDx=0;entryDy=0;" edge="1" parent="1" source="i5Aq-IWf_TVi5hd2lmXF-5" target="i5Aq-IWf_TVi5hd2lmXF-1">
          <mxGeometry relative="1" as="geometry" />
        </mxCell>
        <mxCell id="i5Aq-IWf_TVi5hd2lmXF-5" value="&lt;b&gt;API&lt;/b&gt;" style="ellipse;whiteSpace=wrap;html=1;fillColor=#e1d5e7;strokeColor=#9673a6;" vertex="1" parent="1">
          <mxGeometry x="170" y="340" width="120" height="80" as="geometry" />
        </mxCell>
        <mxCell id="i5Aq-IWf_TVi5hd2lmXF-9" style="edgeStyle=orthogonalEdgeStyle;rounded=0;orthogonalLoop=1;jettySize=auto;html=1;entryX=0;entryY=0.5;entryDx=0;entryDy=0;" edge="1" parent="1" source="i5Aq-IWf_TVi5hd2lmXF-8" target="i5Aq-IWf_TVi5hd2lmXF-5">
          <mxGeometry relative="1" as="geometry" />
        </mxCell>
        <mxCell id="i5Aq-IWf_TVi5hd2lmXF-8" value="&lt;b&gt;Ansible&lt;/b&gt;" style="rounded=0;whiteSpace=wrap;html=1;fillColor=#fff2cc;strokeColor=#d6b656;" vertex="1" parent="1">
          <mxGeometry x="-80" y="350" width="120" height="60" as="geometry" />
        </mxCell>
        <mxCell id="i5Aq-IWf_TVi5hd2lmXF-10" value="&lt;b&gt;Python Libs&lt;/b&gt;&lt;div&gt;&lt;b&gt;boto3&lt;/b&gt;&lt;/div&gt;&lt;div&gt;&lt;b&gt;botocore&lt;/b&gt;&lt;/div&gt;" style="text;html=1;align=center;verticalAlign=middle;resizable=0;points=[];autosize=1;strokeColor=none;fillColor=none;" vertex="1" parent="1">
          <mxGeometry x="55" y="380" width="90" height="60" as="geometry" />
        </mxCell>
        <mxCell id="i5Aq-IWf_TVi5hd2lmXF-11" value="" style="rounded=1;whiteSpace=wrap;html=1;fillColor=#dae8fc;strokeColor=#6c8ebf;" vertex="1" parent="1">
          <mxGeometry x="250" y="560" width="320" height="310" as="geometry" />
        </mxCell>
        <mxCell id="i5Aq-IWf_TVi5hd2lmXF-12" value="&lt;b&gt;EC2&lt;/b&gt;" style="ellipse;whiteSpace=wrap;html=1;fillColor=#d5e8d4;strokeColor=#82b366;" vertex="1" parent="1">
          <mxGeometry x="260" y="690" width="120" height="80" as="geometry" />
        </mxCell>
        <mxCell id="i5Aq-IWf_TVi5hd2lmXF-13" value="&lt;b&gt;Secrets&lt;/b&gt;" style="rounded=1;whiteSpace=wrap;html=1;fillColor=#f8cecc;strokeColor=#b85450;" vertex="1" parent="1">
          <mxGeometry x="410" y="600" width="120" height="60" as="geometry" />
        </mxCell>
        <mxCell id="i5Aq-IWf_TVi5hd2lmXF-14" style="edgeStyle=orthogonalEdgeStyle;rounded=0;orthogonalLoop=1;jettySize=auto;html=1;entryX=0.007;entryY=0.397;entryDx=0;entryDy=0;entryPerimeter=0;" edge="1" parent="1" source="i5Aq-IWf_TVi5hd2lmXF-12" target="i5Aq-IWf_TVi5hd2lmXF-13">
          <mxGeometry relative="1" as="geometry">
            <Array as="points">
              <mxPoint x="320" y="624" />
            </Array>
          </mxGeometry>
        </mxCell>
        <mxCell id="i5Aq-IWf_TVi5hd2lmXF-15" value="&lt;b&gt;AWS&lt;/b&gt;" style="text;html=1;align=center;verticalAlign=middle;resizable=0;points=[];autosize=1;strokeColor=none;fillColor=none;" vertex="1" parent="1">
          <mxGeometry x="385" y="560" width="50" height="30" as="geometry" />
        </mxCell>
        <mxCell id="i5Aq-IWf_TVi5hd2lmXF-16" value="&lt;b&gt;Results&lt;/b&gt;" style="shape=cylinder3;whiteSpace=wrap;html=1;boundedLbl=1;backgroundOutline=1;size=15;fillColor=#dae8fc;strokeColor=#6c8ebf;" vertex="1" parent="1">
          <mxGeometry x="710" y="1020" width="90" height="100" as="geometry" />
        </mxCell>
        <mxCell id="i5Aq-IWf_TVi5hd2lmXF-17" value="&lt;b&gt;Backend&lt;/b&gt;" style="whiteSpace=wrap;html=1;aspect=fixed;fillColor=#f8cecc;strokeColor=#b85450;" vertex="1" parent="1">
          <mxGeometry x="510" y="1030" width="80" height="80" as="geometry" />
        </mxCell>
        <mxCell id="i5Aq-IWf_TVi5hd2lmXF-19" style="edgeStyle=orthogonalEdgeStyle;rounded=0;orthogonalLoop=1;jettySize=auto;html=1;" edge="1" parent="1" source="i5Aq-IWf_TVi5hd2lmXF-18" target="i5Aq-IWf_TVi5hd2lmXF-17">
          <mxGeometry relative="1" as="geometry" />
        </mxCell>
        <mxCell id="i5Aq-IWf_TVi5hd2lmXF-18" value="&lt;b&gt;Frontend&lt;/b&gt;" style="ellipse;whiteSpace=wrap;html=1;fillColor=#e1d5e7;strokeColor=#9673a6;" vertex="1" parent="1">
          <mxGeometry x="280" y="1030" width="120" height="80" as="geometry" />
        </mxCell>
        <mxCell id="i5Aq-IWf_TVi5hd2lmXF-20" style="edgeStyle=orthogonalEdgeStyle;rounded=0;orthogonalLoop=1;jettySize=auto;html=1;entryX=0;entryY=0.5;entryDx=0;entryDy=0;entryPerimeter=0;" edge="1" parent="1" source="i5Aq-IWf_TVi5hd2lmXF-17" target="i5Aq-IWf_TVi5hd2lmXF-16">
          <mxGeometry relative="1" as="geometry" />
        </mxCell>
        <mxCell id="i5Aq-IWf_TVi5hd2lmXF-22" style="edgeStyle=orthogonalEdgeStyle;rounded=0;orthogonalLoop=1;jettySize=auto;html=1;entryX=0.5;entryY=1;entryDx=0;entryDy=0;" edge="1" parent="1" source="i5Aq-IWf_TVi5hd2lmXF-21" target="i5Aq-IWf_TVi5hd2lmXF-17">
          <mxGeometry relative="1" as="geometry" />
        </mxCell>
        <mxCell id="i5Aq-IWf_TVi5hd2lmXF-21" value="&lt;b&gt;eenadu&lt;/b&gt;" style="ellipse;whiteSpace=wrap;html=1;aspect=fixed;fillColor=#fff2cc;strokeColor=#d6b656;" vertex="1" parent="1">
          <mxGeometry x="300" y="1180" width="80" height="80" as="geometry" />
        </mxCell>
        <mxCell id="i5Aq-IWf_TVi5hd2lmXF-24" style="edgeStyle=orthogonalEdgeStyle;rounded=0;orthogonalLoop=1;jettySize=auto;html=1;entryX=0.5;entryY=0;entryDx=0;entryDy=0;" edge="1" parent="1" source="i5Aq-IWf_TVi5hd2lmXF-23" target="i5Aq-IWf_TVi5hd2lmXF-17">
          <mxGeometry relative="1" as="geometry" />
        </mxCell>
        <mxCell id="i5Aq-IWf_TVi5hd2lmXF-23" value="&lt;b&gt;Gov&lt;/b&gt;&lt;div&gt;&lt;b&gt;Admins&lt;/b&gt;&lt;/div&gt;" style="ellipse;whiteSpace=wrap;html=1;aspect=fixed;fillColor=#fff2cc;strokeColor=#d6b656;" vertex="1" parent="1">
          <mxGeometry x="300" y="900" width="80" height="80" as="geometry" />
        </mxCell>
      </root>
    </mxGraphModel>
  </diagram>
</mxfile>
